# xmcd CD database file
#
# Track frame offsets:
#	150
#	2493
#	27290
#	50690
#	76722
#	91121
#	116361
#	143151
#	165792
#
# Disc length: 2420 seconds
#
# Revision: 0
# Processed by: cddbd v1.5.1PL0 Copyright (c) Steve Scherf et al.
# Submitted via: CDex 1.51
#
DISCID=56097209
DTITLE=Fidel Morales Y Proyecto Nega - Salsa Son Timba
DYEAR=1900
DGENRE=Salsa
TTITLE0=Salsa Son Timba (Intro.)
TTITLE1=Que Manera De Quererte,Que Manera
TTITLE2=Yo Sere Para Ti
TTITLE3=El Chan Chan Son
TTITLE4=Pare Cochero
TTITLE5=Atrevete
TTITLE6=Remedio De Amor
TTITLE7=Mamina
TTITLE8=Salsa Son Timba
EXTD=
EXTT0=
EXTT1=
EXTT2=
EXTT3=
EXTT4=
EXTT5=
EXTT6=
EXTT7=
EXTT8=
PLAYORDER=
